# Blender 3.6.20
# www.blender.org
mtllib coin.mtl
o Coin
v -0.250000 0.000000 -0.760650
v 0.250000 0.000000 -0.760650
v -0.250000 -0.291088 -0.702749
v 0.250000 -0.291088 -0.702749
v -0.250000 -0.537861 -0.537861
v 0.250000 -0.537861 -0.537861
v -0.250000 -0.702749 -0.291088
v 0.250000 -0.702749 -0.291088
v -0.250000 -0.760650 -0.000000
v 0.250000 -0.760650 -0.000000
v -0.250000 -0.702749 0.291088
v 0.250000 -0.702749 0.291088
v -0.250000 -0.537861 0.537861
v 0.250000 -0.537861 0.537861
v -0.250000 -0.291088 0.702749
v 0.250000 -0.291088 0.702749
v -0.250000 0.000000 0.760650
v 0.250000 0.000000 0.760650
v -0.250000 0.291088 0.702749
v 0.250000 0.291088 0.702749
v -0.250000 0.537861 0.537861
v 0.250000 0.537861 0.537861
v -0.250000 0.702749 0.291088
v 0.250000 0.702749 0.291088
v -0.250000 0.760650 -0.000000
v 0.250000 0.760650 -0.000000
v -0.250000 0.702749 -0.291088
v 0.250000 0.702749 -0.291088
v -0.250000 0.537861 -0.537861
v 0.250000 0.537861 -0.537861
v -0.250000 0.291088 -0.702749
v 0.250000 0.291088 -0.702749
v -0.250000 0.000000 -1.000000
v -0.250000 -0.382683 -0.923879
v 0.250000 -0.382683 -0.923879
v 0.250000 0.000000 -1.000000
v -0.250000 -0.707107 -0.707107
v 0.250000 -0.707107 -0.707107
v -0.250000 -0.923880 -0.382683
v 0.250000 -0.923880 -0.382683
v -0.250000 -1.000000 -0.000000
v 0.250000 -1.000000 -0.000000
v -0.250000 -0.923880 0.382683
v 0.250000 -0.923880 0.382683
v -0.250000 -0.707107 0.707107
v 0.250000 -0.707107 0.707107
v -0.250000 -0.382683 0.923879
v 0.250000 -0.382683 0.923879
v -0.250000 0.000000 1.000000
v 0.250000 0.000000 1.000000
v -0.250000 0.382683 0.923879
v 0.250000 0.382683 0.923879
v -0.250000 0.707107 0.707107
v 0.250000 0.707107 0.707107
v -0.250000 0.923880 0.382683
v 0.250000 0.923880 0.382683
v -0.250000 1.000000 -0.000000
v 0.250000 1.000000 -0.000000
v -0.250000 0.923880 -0.382683
v 0.250000 0.923880 -0.382683
v -0.250000 0.707107 -0.707107
v 0.250000 0.707107 -0.707107
v -0.250000 0.382683 -0.923879
v 0.250000 0.382683 -0.923879
v -0.105947 0.000000 -0.760650
v -0.105947 -0.291088 -0.702749
v 0.105947 -0.291088 -0.702749
v 0.105947 0.000000 -0.760650
v -0.105947 -0.537861 -0.537861
v 0.105947 -0.537861 -0.537861
v -0.105947 -0.702749 -0.291088
v 0.105947 -0.702749 -0.291088
v -0.105947 -0.760650 0.000000
v 0.105947 -0.760650 0.000000
v -0.105947 -0.702749 0.291088
v 0.105947 -0.702749 0.291088
v -0.105947 -0.537861 0.537861
v 0.105947 -0.537861 0.537861
v -0.105947 -0.291088 0.702749
v 0.105947 -0.291088 0.702749
v -0.105947 0.000000 0.760650
v 0.105947 0.000000 0.760650
v -0.105947 0.291088 0.702749
v 0.105947 0.291088 0.702749
v -0.105947 0.537861 0.537861
v 0.105947 0.537861 0.537861
v -0.105947 0.702749 0.291088
v 0.105947 0.702749 0.291088
v -0.105947 0.760650 0.000000
v 0.105947 0.760650 0.000000
v -0.105947 0.702749 -0.291088
v 0.105947 0.702749 -0.291088
v -0.105947 0.537861 -0.537861
v 0.105947 0.537861 -0.537861
v -0.105947 0.291088 -0.702749
v 0.105947 0.291088 -0.702749
vn -0.0000 -0.0000 -1.0000
vn -0.0000 -0.3827 -0.9239
vn -0.0000 -0.7071 -0.7071
vn -0.0000 -0.9239 -0.3827
vn -0.0000 -1.0000 -0.0000
vn -0.0000 -0.9239 0.3827
vn -0.0000 -0.7071 0.7071
vn -0.0000 -0.3827 0.9239
vn -0.0000 -0.0000 1.0000
vn -0.0000 0.3827 0.9239
vn -0.0000 0.7071 0.7071
vn -0.0000 0.9239 0.3827
vn -0.0000 1.0000 -0.0000
vn -0.0000 0.9239 -0.3827
vn -0.0000 0.7071 -0.7071
vn -0.0000 0.3827 -0.9239
vn -1.0000 -0.0000 -0.0000
vn 1.0000 -0.0000 -0.0000
vt 1.000000 0.894625
vt 1.000000 1.000000
vt 0.937500 1.000000
vt 0.937500 0.894625
vt 0.875000 1.000000
vt 0.875000 0.894625
vt 0.812500 1.000000
vt 0.812500 0.894625
vt 0.750000 1.000000
vt 0.750000 0.894625
vt 0.687500 1.000000
vt 0.687500 0.894625
vt 0.625000 1.000000
vt 0.625000 0.894625
vt 0.562500 1.000000
vt 0.562500 0.894625
vt 0.500000 1.000000
vt 0.500000 0.894625
vt 0.437500 1.000000
vt 0.437500 0.894625
vt 0.375000 1.000000
vt 0.375000 0.894625
vt 0.312500 1.000000
vt 0.312500 0.894625
vt 0.250000 1.000000
vt 0.250000 0.894625
vt 0.187500 1.000000
vt 0.187500 0.894625
vt 0.125000 1.000000
vt 0.125000 0.894625
vt 0.133986 0.008628
vt 0.139858 0.004704
vt 0.062500 1.000000
vt 0.062500 0.894625
vt 0.000000 1.000000
vt 0.000000 0.894625
vt 0.163507 0.028353
vt 0.159584 0.034226
vt 0.901961 0.265599
vt 0.873047 0.271350
vt 0.873047 0.295125
vt 0.911059 0.287564
vt 0.156490 0.268521
vt 0.189713 0.261913
vt 0.200167 0.287151
vt 0.156490 0.295839
vt 0.926473 0.249221
vt 0.943284 0.266032
vt 0.217879 0.243093
vt 0.237195 0.262410
vt 0.942852 0.224708
vt 0.964817 0.233807
vt 0.236698 0.214928
vt 0.261936 0.225382
vt 0.948603 0.195794
vt 0.972378 0.195794
vt 0.243306 0.181705
vt 0.270624 0.181705
vt 0.942851 0.166880
vt 0.964817 0.157782
vt 0.236698 0.148482
vt 0.261936 0.138028
vt 0.926473 0.142368
vt 0.943284 0.125557
vt 0.217878 0.120317
vt 0.237195 0.101000
vt 0.901961 0.125990
vt 0.911059 0.104025
vt 0.189713 0.101498
vt 0.200167 0.076259
vt 0.873047 0.120238
vt 0.873047 0.096464
vt 0.156490 0.094889
vt 0.156490 0.067571
vt 0.844133 0.125990
vt 0.835035 0.104025
vt 0.123267 0.101498
vt 0.112813 0.076259
vt 0.819621 0.142368
vt 0.802809 0.125557
vt 0.095102 0.120317
vt 0.075785 0.101000
vt 0.803242 0.166880
vt 0.781277 0.157782
vt 0.076283 0.148482
vt 0.051044 0.138028
vt 0.797491 0.195794
vt 0.773716 0.195794
vt 0.069674 0.181705
vt 0.042356 0.181705
vt 0.803242 0.224708
vt 0.781277 0.233807
vt 0.076283 0.214928
vt 0.051044 0.225382
vt 0.819621 0.249221
vt 0.802809 0.266032
vt 0.095102 0.243093
vt 0.075785 0.262410
vt 0.844133 0.265599
vt 0.835035 0.287564
vt 0.123267 0.261913
vt 0.112813 0.287151
vt 0.967561 0.361047
vt 1.001900 0.519159
vt 0.967561 0.677270
vt 0.869771 0.811311
vt 0.723417 0.900873
vt 0.550781 0.932324
vt 0.378146 0.900873
vt 0.231792 0.811310
vt 0.134002 0.677270
vt 0.099662 0.519159
vt 0.134002 0.361047
vt 0.231792 0.227007
vt 0.378146 0.137444
vt 0.550781 0.105994
vt 0.723417 0.137444
vt 0.869771 0.227007
vt 1.002897 0.519159
vt 0.968482 0.360698
vt 0.870476 0.226361
vt 0.723799 0.136600
vt 0.550782 0.105081
vt 0.377764 0.136601
vt 0.231087 0.226361
vt 0.133081 0.360698
vt 0.098665 0.519159
vt 0.133081 0.677620
vt 0.231087 0.811956
vt 0.377764 0.901717
vt 0.550781 0.933237
vt 0.723799 0.901717
vt 0.870476 0.811957
vt 0.968483 0.677620
vt 0.819804 0.028787
vt 0.821297 0.021282
vt 0.787816 0.007414
vt 0.783565 0.013777
vt 0.164885 0.021427
vt 0.130062 0.014500
vt 0.819804 0.013777
vt 0.782072 0.021282
vt 0.163507 0.014500
vt 0.128684 0.021427
vt 0.815552 0.007414
vt 0.783565 0.028787
vt 0.159584 0.008628
vt 0.130062 0.028353
vt 0.809190 0.003162
vt 0.787816 0.035150
vt 0.153711 0.004704
vt 0.801684 0.040895
vt 0.809190 0.039402
vt 0.133986 0.034226
vt 0.801684 0.001670
vt 0.153711 0.038149
vt 0.146785 0.039527
vt 0.794179 0.039402
vt 0.146785 0.003326
vt 0.815552 0.035150
vt 0.139858 0.038149
vt 0.794179 0.003162
s 1
usemtl Material.006
f 33/1/1 36/2/1 35/3/2 34/4/2
f 34/4/2 35/3/2 38/5/3 37/6/3
f 37/6/3 38/5/3 40/7/4 39/8/4
f 39/8/4 40/7/4 42/9/5 41/10/5
f 41/10/5 42/9/5 44/11/6 43/12/6
f 43/12/6 44/11/6 46/13/7 45/14/7
f 45/14/7 46/13/7 48/15/8 47/16/8
f 47/16/8 48/15/8 50/17/9 49/18/9
f 49/18/9 50/17/9 52/19/10 51/20/10
f 51/20/10 52/19/10 54/21/11 53/22/11
f 53/22/11 54/21/11 56/23/12 55/24/12
f 55/24/12 56/23/12 58/25/13 57/26/13
f 57/26/13 58/25/13 60/27/14 59/28/14
f 59/28/14 60/27/14 62/29/15 61/30/15
f 22/31/3 20/32/2 84/32/2 86/31/3
f 61/30/15 62/29/15 64/33/16 63/34/16
f 63/34/16 64/33/16 36/35/1 33/36/1
f 8/37/12 6/38/11 70/38/11 72/37/12
f 3/39/17 1/40/17 33/41/17 34/42/17
f 2/43/18 4/44/18 35/45/18 36/46/18
f 5/47/17 3/39/17 34/42/17 37/48/17
f 4/44/18 6/49/18 38/50/18 35/45/18
f 7/51/17 5/47/17 37/48/17 39/52/17
f 6/49/18 8/53/18 40/54/18 38/50/18
f 9/55/17 7/51/17 39/52/17 41/56/17
f 8/53/18 10/57/18 42/58/18 40/54/18
f 11/59/17 9/55/17 41/56/17 43/60/17
f 10/57/18 12/61/18 44/62/18 42/58/18
f 13/63/17 11/59/17 43/60/17 45/64/17
f 12/61/18 14/65/18 46/66/18 44/62/18
f 15/67/17 13/63/17 45/64/17 47/68/17
f 14/65/18 16/69/18 48/70/18 46/66/18
f 17/71/17 15/67/17 47/68/17 49/72/17
f 16/69/18 18/73/18 50/74/18 48/70/18
f 19/75/17 17/71/17 49/72/17 51/76/17
f 18/73/18 20/77/18 52/78/18 50/74/18
f 21/79/17 19/75/17 51/76/17 53/80/17
f 20/77/18 22/81/18 54/82/18 52/78/18
f 23/83/17 21/79/17 53/80/17 55/84/17
f 22/81/18 24/85/18 56/86/18 54/82/18
f 25/87/17 23/83/17 55/84/17 57/88/17
f 24/85/18 26/89/18 58/90/18 56/86/18
f 27/91/17 25/87/17 57/88/17 59/92/17
f 26/89/18 28/93/18 60/94/18 58/90/18
f 29/95/17 27/91/17 59/92/17 61/96/17
f 28/93/18 30/97/18 62/98/18 60/94/18
f 31/99/17 29/95/17 61/96/17 63/100/17
f 30/97/18 32/101/18 64/102/18 62/98/18
f 1/40/17 31/99/17 63/100/17 33/41/17
f 32/101/18 2/43/18 36/46/18 64/102/18
f 67/103/18 68/104/18 96/105/18 94/106/18 92/107/18 90/108/18 88/109/18 86/110/18 84/111/18 82/112/18 80/113/18 78/114/18 76/115/18 74/116/18 72/117/18 70/118/18
f 65/119/17 66/120/17 69/121/17 71/122/17 73/123/17 75/124/17 77/125/17 79/126/17 81/127/17 83/128/17 85/129/17 87/130/17 89/131/17 91/132/17 93/133/17 95/134/17
f 7/135/12 9/136/13 73/136/13 71/135/12
f 21/137/3 23/138/4 87/138/4 85/137/3
f 10/139/13 8/37/12 72/37/12 74/139/13
f 24/140/4 22/31/3 86/31/3 88/140/4
f 9/136/13 11/141/14 75/141/14 73/136/13
f 23/138/4 25/142/5 89/142/5 87/138/4
f 12/143/14 10/139/13 74/139/13 76/143/14
f 26/144/5 24/140/4 88/140/4 90/144/5
f 11/141/14 13/145/15 77/145/15 75/141/14
f 25/142/5 27/146/6 91/146/6 89/142/5
f 14/147/15 12/143/14 76/143/14 78/147/15
f 28/148/6 26/144/5 90/144/5 92/148/6
f 13/145/15 15/149/16 79/149/16 77/145/15
f 27/146/6 29/150/7 93/150/7 91/146/6
f 16/151/16 14/147/15 78/147/15 80/151/16
f 1/152/9 3/153/10 66/153/10 65/152/9
f 30/154/7 28/148/6 92/148/6 94/154/7
f 15/149/16 17/155/1 81/155/1 79/149/16
f 4/156/10 2/157/9 68/157/9 67/156/10
f 29/150/7 31/158/8 95/158/8 93/150/7
f 18/159/1 16/151/16 80/151/16 82/159/1
f 3/153/10 5/160/11 69/160/11 66/153/10
f 32/161/8 30/154/7 94/154/7 96/161/8
f 17/155/1 19/162/2 83/162/2 81/155/1
f 6/38/11 4/156/10 67/156/10 70/38/11
f 31/158/8 1/152/9 65/152/9 95/158/8
f 20/32/2 18/159/1 82/159/1 84/32/2
f 5/160/11 7/135/12 71/135/12 69/160/11
f 2/157/9 32/161/8 96/161/8 68/157/9
f 19/162/2 21/137/3 85/137/3 83/162/2
