# Blender 3.6.20
# www.blender.org
mtllib corridor-collider.mtl
o Collider
v 225.927475 -1.265479 9.926682
v 225.927475 0.961179 9.926682
v 225.927475 -1.265479 -9.926682
v 225.927475 0.961179 -9.926682
v -215.776596 -1.265479 9.926682
v -215.776596 0.961179 9.926682
v -215.776596 -1.265479 -9.926682
v -215.776596 0.961179 -9.926682
v 204.176270 0.961179 -9.926682
v 184.178513 0.961179 -9.926682
v 164.180756 0.961179 -9.926682
v 144.183014 0.961179 -9.926682
v 124.185257 0.961179 -9.926682
v 104.187500 0.961179 -9.926682
v 84.189743 0.961179 -9.926682
v 64.191986 0.961179 -9.926682
v 44.194229 0.961179 -9.926682
v 24.196472 0.961179 -9.926682
v 4.198715 0.961179 -9.926682
v -15.799042 0.961179 -9.926682
v -35.796799 0.961179 -9.926682
v -55.794556 0.961179 -9.926682
v -75.792305 0.961179 -9.926682
v -95.790062 0.961179 -9.926682
v -115.787819 0.961179 -9.926682
v -135.785568 0.961179 -9.926682
v -155.783325 0.961179 -9.926682
v -175.781082 0.961179 -9.926682
v -195.778824 0.961179 -9.926682
v -195.778824 0.961179 9.926682
v -175.781067 0.961179 9.926682
v -155.783310 0.961179 9.926682
v -135.785568 0.961179 9.926682
v -115.787811 0.961179 9.926682
v -95.790054 0.961179 9.926682
v -75.792297 0.961179 9.926682
v -55.794540 0.961179 9.926682
v -35.796783 0.961179 9.926682
v -15.799028 0.961179 9.926682
v 4.198728 0.961179 9.926682
v 24.196484 0.961179 9.926682
v 44.194237 0.961179 9.926682
v 64.191994 0.961179 9.926682
v 84.189751 0.961179 9.926682
v 104.187508 0.961179 9.926682
v 124.185265 0.961179 9.926682
v 144.183014 0.961179 9.926682
v 164.180771 0.961179 9.926682
v 184.178528 0.961179 9.926682
v 204.176270 0.961179 9.926682
v 225.927475 0.961179 0.000000
v -215.776596 0.961179 0.000000
v -195.778824 0.961179 0.000000
v -175.781067 0.961179 0.000000
v -155.783325 0.961179 0.000000
v -135.785568 0.961179 0.000000
v -115.787819 0.961179 0.000000
v -95.790054 0.961179 0.000000
v -75.792305 0.961179 0.000000
v -55.794548 0.961179 0.000000
v -35.796791 0.961179 0.000000
v -15.799036 0.961179 0.000000
v 4.198721 0.961179 0.000000
v 24.196478 0.961179 0.000000
v 44.194237 0.961179 0.000000
v 64.191994 0.961179 0.000000
v 84.189751 0.961179 0.000000
v 104.187500 0.961179 0.000000
v 124.185265 0.961179 0.000000
v 144.183014 0.961179 0.000000
v 164.180771 0.961179 0.000000
v 184.178513 0.961179 0.000000
v 204.176270 0.961179 0.000000
v 225.927475 0.961179 -4.963341
v -215.776596 0.961179 -4.963341
v -195.778824 0.961179 -4.963341
v -175.781067 0.961179 -4.963341
v -155.783325 0.961179 -4.963341
v -135.785568 0.961179 -4.963341
v -115.787819 0.961179 -4.963341
v -95.790054 0.961179 -4.963341
v -75.792305 0.961179 -4.963341
v -55.794548 0.961179 -4.963341
v -35.796791 0.961179 -4.963341
v -15.799040 0.961179 -4.963341
v 4.198718 0.961179 -4.963341
v 24.196474 0.961179 -4.963341
v 44.194229 0.961179 -4.963341
v 64.191986 0.961179 -4.963341
v 84.189751 0.961179 -4.963341
v 104.187500 0.961179 -4.963341
v 124.185265 0.961179 -4.963341
v 144.183014 0.961179 -4.963341
v 164.180771 0.961179 -4.963341
v 184.178513 0.961179 -4.963341
v 204.176270 0.961179 -4.963341
v -215.776596 0.961179 4.963341
v -195.778824 0.961179 4.963341
v -175.781067 0.961179 4.963341
v -155.783325 0.961179 4.963341
v -135.785568 0.961179 4.963341
v -115.787819 0.961179 4.963341
v -95.790054 0.961179 4.963341
v -75.792305 0.961179 4.963341
v -55.794548 0.961179 4.963341
v -35.796791 0.961179 4.963341
v -15.799030 0.961179 4.963341
v 4.198724 0.961179 4.963341
v 24.196482 0.961179 4.963341
v 44.194237 0.961179 4.963341
v 64.191994 0.961179 4.963341
v 84.189751 0.961179 4.963341
v 104.187500 0.961179 4.963341
v 124.185265 0.961179 4.963341
v 144.183014 0.961179 4.963341
v 164.180771 0.961179 4.963341
v 184.178513 0.961179 4.963341
v 204.176270 0.961179 4.963341
v 225.927475 0.961179 4.963341
vn -1.0000 -0.0000 -0.0000
vn -0.0000 -0.0000 1.0000
vn 1.0000 -0.0000 -0.0000
vn -0.0000 -0.0000 -1.0000
vn -0.0000 1.0000 -0.0000
vn -0.0000 -1.0000 -0.0000
vt 0.375000 0.000000
vt 0.625000 0.000000
vt 0.625000 0.062500
vt 0.625000 0.125000
vt 0.625000 0.187500
vt 0.625000 0.250000
vt 0.375000 0.250000
vt 0.625000 0.261364
vt 0.625000 0.272727
vt 0.625000 0.284091
vt 0.625000 0.295455
vt 0.625000 0.306818
vt 0.625000 0.318182
vt 0.625000 0.329545
vt 0.625000 0.340909
vt 0.625000 0.352273
vt 0.625000 0.363636
vt 0.625000 0.375000
vt 0.625000 0.386364
vt 0.625000 0.397727
vt 0.625000 0.409091
vt 0.625000 0.420455
vt 0.625000 0.431818
vt 0.625000 0.443182
vt 0.625000 0.454545
vt 0.625000 0.465909
vt 0.625000 0.477273
vt 0.625000 0.488636
vt 0.625000 0.500000
vt 0.375000 0.500000
vt 0.625000 0.562500
vt 0.625000 0.625000
vt 0.625000 0.687500
vt 0.625000 0.750000
vt 0.375000 0.750000
vt 0.625000 0.761364
vt 0.625000 0.772727
vt 0.625000 0.784091
vt 0.625000 0.795455
vt 0.625000 0.806818
vt 0.625000 0.818182
vt 0.625000 0.829545
vt 0.625000 0.840909
vt 0.625000 0.852273
vt 0.625000 0.863636
vt 0.625000 0.875000
vt 0.625000 0.886364
vt 0.625000 0.897727
vt 0.625000 0.909091
vt 0.625000 0.920454
vt 0.625000 0.931818
vt 0.625000 0.943182
vt 0.625000 0.954545
vt 0.625000 0.965909
vt 0.625000 0.977273
vt 0.625000 0.988636
vt 0.625000 1.000000
vt 0.375000 1.000000
vt 0.125000 0.500000
vt 0.125000 0.750000
vt 0.863636 0.687500
vt 0.875000 0.687500
vt 0.875000 0.750000
vt 0.863636 0.750000
vt 0.636364 0.687500
vt 0.636364 0.750000
vt 0.647727 0.687500
vt 0.647727 0.750000
vt 0.659091 0.687500
vt 0.659091 0.750000
vt 0.670455 0.687500
vt 0.670455 0.750000
vt 0.681818 0.687500
vt 0.681818 0.750000
vt 0.693182 0.687500
vt 0.693182 0.750000
vt 0.704545 0.687500
vt 0.704545 0.750000
vt 0.715909 0.687500
vt 0.715909 0.750000
vt 0.727273 0.687500
vt 0.727273 0.750000
vt 0.738636 0.687500
vt 0.738636 0.750000
vt 0.750000 0.687500
vt 0.750000 0.750000
vt 0.761364 0.687500
vt 0.761364 0.750000
vt 0.772727 0.687500
vt 0.772727 0.750000
vt 0.784091 0.687500
vt 0.784091 0.750000
vt 0.795455 0.687500
vt 0.795454 0.750000
vt 0.806818 0.687500
vt 0.806818 0.750000
vt 0.818182 0.687500
vt 0.818182 0.750000
vt 0.829545 0.687500
vt 0.829545 0.750000
vt 0.840909 0.687500
vt 0.840909 0.750000
vt 0.852273 0.687500
vt 0.852273 0.750000
vt 0.852273 0.562500
vt 0.863636 0.562500
vt 0.863636 0.625000
vt 0.852273 0.625000
vt 0.840909 0.562500
vt 0.840909 0.625000
vt 0.829545 0.562500
vt 0.829545 0.625000
vt 0.818182 0.562500
vt 0.818182 0.625000
vt 0.806818 0.562500
vt 0.806818 0.625000
vt 0.795455 0.562500
vt 0.795455 0.625000
vt 0.784091 0.562500
vt 0.784091 0.625000
vt 0.772727 0.562500
vt 0.772727 0.625000
vt 0.761364 0.562500
vt 0.761364 0.625000
vt 0.750000 0.562500
vt 0.750000 0.625000
vt 0.738636 0.562500
vt 0.738636 0.625000
vt 0.727273 0.562500
vt 0.727273 0.625000
vt 0.715909 0.562500
vt 0.715909 0.625000
vt 0.704545 0.562500
vt 0.704546 0.625000
vt 0.693182 0.562500
vt 0.693182 0.625000
vt 0.681818 0.562500
vt 0.681818 0.625000
vt 0.670455 0.562500
vt 0.670455 0.625000
vt 0.659091 0.562500
vt 0.659091 0.625000
vt 0.647727 0.562500
vt 0.647727 0.625000
vt 0.636364 0.562500
vt 0.636364 0.625000
vt 0.875000 0.562500
vt 0.875000 0.625000
vt 0.863636 0.500000
vt 0.875000 0.500000
vt 0.636364 0.500000
vt 0.647727 0.500000
vt 0.659091 0.500000
vt 0.670455 0.500000
vt 0.681818 0.500000
vt 0.693182 0.500000
vt 0.704545 0.500000
vt 0.715909 0.500000
vt 0.727273 0.500000
vt 0.738636 0.500000
vt 0.750000 0.500000
vt 0.761364 0.500000
vt 0.772727 0.500000
vt 0.784091 0.500000
vt 0.795455 0.500000
vt 0.806818 0.500000
vt 0.818182 0.500000
vt 0.829545 0.500000
vt 0.840909 0.500000
vt 0.852273 0.500000
s 0
f 1/1/1 2/2/1 119/3/1 51/4/1 74/5/1 4/6/1 3/7/1
f 3/7/2 4/6/2 9/8/2 10/9/2 11/10/2 12/11/2 13/12/2 14/13/2 15/14/2 16/15/2 17/16/2 18/17/2 19/18/2 20/19/2 21/20/2 22/21/2 23/22/2 24/23/2 25/24/2 26/25/2 27/26/2 28/27/2 29/28/2 8/29/2 7/30/2
f 7/30/3 8/29/3 75/31/3 52/32/3 97/33/3 6/34/3 5/35/3
f 5/35/4 6/34/4 30/36/4 31/37/4 32/38/4 33/39/4 34/40/4 35/41/4 36/42/4 37/43/4 38/44/4 39/45/4 40/46/4 41/47/4 42/48/4 43/49/4 44/50/4 45/51/4 46/52/4 47/53/4 48/54/4 49/55/4 50/56/4 2/57/4 1/58/4
f 3/59/5 7/30/5 5/35/5 1/60/5
f 118/61/6 119/62/6 2/63/6 50/64/6
f 97/33/6 98/65/6 30/66/6 6/34/6
f 98/65/6 99/67/6 31/68/6 30/66/6
f 99/67/6 100/69/6 32/70/6 31/68/6
f 100/69/6 101/71/6 33/72/6 32/70/6
f 101/71/6 102/73/6 34/74/6 33/72/6
f 102/73/6 103/75/6 35/76/6 34/74/6
f 103/75/6 104/77/6 36/78/6 35/76/6
f 104/77/6 105/79/6 37/80/6 36/78/6
f 105/79/6 106/81/6 38/82/6 37/80/6
f 106/81/6 107/83/6 39/84/6 38/82/6
f 107/83/6 108/85/6 40/86/6 39/84/6
f 108/85/6 109/87/6 41/88/6 40/86/6
f 109/87/6 110/89/6 42/90/6 41/88/6
f 110/89/6 111/91/6 43/92/6 42/90/6
f 111/91/6 112/93/6 44/94/6 43/92/6
f 112/93/6 113/95/6 45/96/6 44/94/6
f 113/95/6 114/97/6 46/98/6 45/96/6
f 114/97/6 115/99/6 47/100/6 46/98/6
f 115/99/6 116/101/6 48/102/6 47/100/6
f 116/101/6 117/103/6 49/104/6 48/102/6
f 117/103/6 118/61/6 50/64/6 49/104/6
f 95/105/6 96/106/6 73/107/6 72/108/6
f 94/109/6 95/105/6 72/108/6 71/110/6
f 93/111/6 94/109/6 71/110/6 70/112/6
f 92/113/6 93/111/6 70/112/6 69/114/6
f 91/115/6 92/113/6 69/114/6 68/116/6
f 90/117/6 91/115/6 68/116/6 67/118/6
f 89/119/6 90/117/6 67/118/6 66/120/6
f 88/121/6 89/119/6 66/120/6 65/122/6
f 87/123/6 88/121/6 65/122/6 64/124/6
f 86/125/6 87/123/6 64/124/6 63/126/6
f 85/127/6 86/125/6 63/126/6 62/128/6
f 84/129/6 85/127/6 62/128/6 61/130/6
f 83/131/6 84/129/6 61/130/6 60/132/6
f 82/133/6 83/131/6 60/132/6 59/134/6
f 81/135/6 82/133/6 59/134/6 58/136/6
f 80/137/6 81/135/6 58/136/6 57/138/6
f 79/139/6 80/137/6 57/138/6 56/140/6
f 78/141/6 79/139/6 56/140/6 55/142/6
f 77/143/6 78/141/6 55/142/6 54/144/6
f 76/145/6 77/143/6 54/144/6 53/146/6
f 75/31/6 76/145/6 53/146/6 52/32/6
f 96/106/6 74/147/6 51/148/6 73/107/6
f 9/149/6 4/150/6 74/147/6 96/106/6
f 8/29/6 29/151/6 76/145/6 75/31/6
f 29/151/6 28/152/6 77/143/6 76/145/6
f 28/152/6 27/153/6 78/141/6 77/143/6
f 27/153/6 26/154/6 79/139/6 78/141/6
f 26/154/6 25/155/6 80/137/6 79/139/6
f 25/155/6 24/156/6 81/135/6 80/137/6
f 24/156/6 23/157/6 82/133/6 81/135/6
f 23/157/6 22/158/6 83/131/6 82/133/6
f 22/158/6 21/159/6 84/129/6 83/131/6
f 21/159/6 20/160/6 85/127/6 84/129/6
f 20/160/6 19/161/6 86/125/6 85/127/6
f 19/161/6 18/162/6 87/123/6 86/125/6
f 18/162/6 17/163/6 88/121/6 87/123/6
f 17/163/6 16/164/6 89/119/6 88/121/6
f 16/164/6 15/165/6 90/117/6 89/119/6
f 15/165/6 14/166/6 91/115/6 90/117/6
f 14/166/6 13/167/6 92/113/6 91/115/6
f 13/167/6 12/168/6 93/111/6 92/113/6
f 12/168/6 11/169/6 94/109/6 93/111/6
f 11/169/6 10/170/6 95/105/6 94/109/6
f 10/170/6 9/149/6 96/106/6 95/105/6
f 72/108/6 73/107/6 118/61/6 117/103/6
f 71/110/6 72/108/6 117/103/6 116/101/6
f 70/112/6 71/110/6 116/101/6 115/99/6
f 69/114/6 70/112/6 115/99/6 114/97/6
f 68/116/6 69/114/6 114/97/6 113/95/6
f 67/118/6 68/116/6 113/95/6 112/93/6
f 66/120/6 67/118/6 112/93/6 111/91/6
f 65/122/6 66/120/6 111/91/6 110/89/6
f 64/124/6 65/122/6 110/89/6 109/87/6
f 63/126/6 64/124/6 109/87/6 108/85/6
f 62/128/6 63/126/6 108/85/6 107/83/6
f 61/130/6 62/128/6 107/83/6 106/81/6
f 60/132/6 61/130/6 106/81/6 105/79/6
f 59/134/6 60/132/6 105/79/6 104/77/6
f 58/136/6 59/134/6 104/77/6 103/75/6
f 57/138/6 58/136/6 103/75/6 102/73/6
f 56/140/6 57/138/6 102/73/6 101/71/6
f 55/142/6 56/140/6 101/71/6 100/69/6
f 54/144/6 55/142/6 100/69/6 99/67/6
f 53/146/6 54/144/6 99/67/6 98/65/6
f 52/32/6 53/146/6 98/65/6 97/33/6
f 73/107/6 51/148/6 119/62/6 118/61/6
